HIERARCHY
ROOT Hips
{
    OFFSET 0.000000 0.000000 0.000000
    CHANNELS 6 Xposition Yposition Zposition Zrotation Xrotation Yrotation
    JOINT Spine
    {
        OFFSET -0.000000 14.517291 0.000000
        CHANNELS 3 Zrotation Xrotation Yrotation
        JOINT Spine1
        {
            OFFSET -0.000000 37.558300 0.000000
            CHANNELS 3 Zrotation Xrotation Yrotation
            JOINT Neck
            {
                OFFSET -0.000000 37.404057 3.400369
                CHANNELS 3 Zrotation Xrotation Yrotation
                JOINT Head
                {
                    OFFSET -0.000000 24.785618 -3.540803
                    CHANNELS 3 Zrotation Xrotation Yrotation
                    End Site
                    {
                        OFFSET -0.000000 35.408028 0.000000
                    }
                }
            }
            JOINT LeftShoulder
            {
                OFFSET 6.992933 33.973492 -0.192664
                CHANNELS 3 Zrotation Xrotation Yrotation
                JOINT LeftArm
                {
                    OFFSET 21.527611 0.000000 0.000000
                    CHANNELS 3 Zrotation Xrotation Yrotation
                    JOINT LeftForeArm
                    {
                        OFFSET 56.353916 0.000000 0.000000
                        CHANNELS 3 Zrotation Xrotation Yrotation
                        JOINT LeftHand
                        {
                            OFFSET 47.774071 0.000000 0.000000
                            CHANNELS 3 Zrotation Xrotation Yrotation
                            End Site
                            {
                                OFFSET 26.556021 0.000000 0.000000
                            }
                        }
                    }
                }
            }
            JOINT RightShoulder
            {
                OFFSET -7.065357 33.973492 -0.192664
                CHANNELS 3 Zrotation Xrotation Yrotation
                JOINT RightArm
                {
                    OFFSET -21.527611 0.000000 0.000000
                    CHANNELS 3 Zrotation Xrotation Yrotation
                    JOINT RightForeArm
                    {
                        OFFSET -56.353916 0.000000 0.000000
                        CHANNELS 3 Zrotation Xrotation Yrotation
                        JOINT RightHand
                        {
                            OFFSET -47.774071 0.000000 0.000000
                            CHANNELS 3 Zrotation Xrotation Yrotation
                            End Site
                            {
                                OFFSET -26.556021 0.000000 0.000000
                            }
                        }
                    }
                }
            }
        }
    }
    JOINT LeftUpLeg
    {
        OFFSET 17.704014 0.000000 0.000000
        CHANNELS 3 Zrotation Xrotation Yrotation
        JOINT LeftLeg
        {
            OFFSET -0.000000 -81.181816 0.000000
            CHANNELS 3 Zrotation Xrotation Yrotation
            JOINT LeftFoot
            {
                OFFSET -0.000000 -62.821102 0.000000
                CHANNELS 3 Zrotation Xrotation Yrotation
                JOINT LeftToeBase
                {
                    OFFSET -0.000000 -11.507608 26.556021
                    CHANNELS 3 Zrotation Xrotation Yrotation
                    End Site
                    {
                        OFFSET -0.000000 0.000000 7.081605
                    }
                }
            }
        }
    }
    JOINT RightUpLeg
    {
        OFFSET -17.704014 0.000000 0.000000
        CHANNELS 3 Zrotation Xrotation Yrotation
        JOINT RightLeg
        {
            OFFSET -0.000000 -81.181816 0.000000
            CHANNELS 3 Zrotation Xrotation Yrotation
            JOINT RightFoot
            {
                OFFSET -0.000000 -62.821102 0.000000
                CHANNELS 3 Zrotation Xrotation Yrotation
                JOINT RightToeBase
                {
                    OFFSET -0.000000 -11.507608 26.556021
                    CHANNELS 3 Zrotation Xrotation Yrotation
                    End Site
                    {
                        OFFSET -0.000000 0.000000 7.081605
                    }
                }
            }
        }
    }
}
MOTION
Frames:    12
Frame Time:    0.008333
20.061008    154.154633    -43.767502    -0.833482    0.995426    -54.094868    3.225971    -0.113765    0.264668    0.438052    2.283244    0.078116    16.107061    -1.166242    14.161331    -10.054777    10.380311    11.663872    12.159187    -0.305435    -18.807962    -9.473189    -18.226597    -38.977188    7.642468    -38.855858    -23.461401    -25.078375    -28.511850    -46.086052    -8.518622    3.358423    -1.287028    35.057110    6.829243    78.160995    7.289137    -2.205627    106.598434    3.576016    -11.298502    20.558123    26.322531    -18.538742    5.911948    -12.461486    20.117998    -3.760701    -11.228771    -10.958690    38.706547    0.000000    0.000000    0.000000    -11.358783    -12.099987    -2.485016    8.728954    39.415588    -2.277531    1.364629    -23.229784    -10.518783    0.000000    0.000000    0.000000    
20.121096    154.223511    -43.684368    -0.837406    0.999699    -54.336082    3.250163    -0.095350    0.283214    0.446468    2.296816    0.083773    16.142962    -1.153621    14.243470    -10.108139    10.359076    11.741154    12.157887    -0.368436    -18.801353    -9.436828    -18.275755    -38.908291    7.677184    -38.851982    -23.215656    -25.030777    -28.527454    -46.118900    -8.558827    3.314733    -1.279248    35.082012    6.839887    78.229996    7.302134    -2.208194    106.633247    3.557535    -11.328691    20.528643    26.199074    -18.515329    5.088422    -12.352144    20.089331    -4.074144    -11.374992    -11.037178    38.525127    0.000000    0.000000    0.000000    -11.354066    -12.105802    -2.318317    8.711834    39.260998    -2.274604    1.418679    -23.091309    -10.452091    0.000000    0.000000    0.000000    
20.194296    154.293045    -43.590504    -0.821317    1.013401    -54.591209    3.288303    -0.089200    0.306164    0.434599    2.289063    0.091757    16.176628    -1.125137    14.323134    -10.150050    10.330885    11.818467    12.158020    -0.400026    -18.785942    -9.380094    -18.293982    -38.844181    7.786143    -38.864933    -22.950987    -24.976824    -28.575216    -46.054081    -8.593413    3.277666    -1.247192    35.102997    6.862729    78.282997    7.282511    -2.244909    106.653152    3.577480    -11.337337    20.560846    26.065142    -18.502724    4.329715    -12.237489    20.078587    -4.384122    -11.463840    -11.113246    38.304153    0.000000    0.000000    0.000000    -11.363171    -12.131774    -2.176923    8.667218    39.090511    -2.240696    1.479672    -22.938581    -10.342854    0.000000    0.000000    0.000000    
20.252064    154.358673    -43.498333    -0.807002    1.012318    -54.853653    3.293898    -0.085238    0.328381    0.430687    2.295369    0.099124    16.229002    -1.115729    14.403971    -10.186285    10.328116    11.893809    12.175272    -0.417530    -18.769018    -9.285769    -18.249992    -38.753029    7.930792    -38.966080    -22.701948    -25.002617    -28.663040    -46.079781    -8.601237    3.263001    -1.213991    35.087818    6.872496    78.351669    7.249808    -2.325219    106.673569    3.630851    -11.365258    20.605339    25.940550    -18.461229    3.539584    -12.166930    20.050985    -4.636238    -11.628672    -11.263978    38.056671    0.000000    0.000000    0.000000    -11.382442    -12.140375    -2.012934    8.651459    38.908070    -2.238443    1.527368    -22.811649    -10.230769    0.000000    0.000000    0.000000    
20.309813    154.418930    -43.408932    -0.789161    1.019090    -55.110828    3.307069    -0.073754    0.342155    0.417053    2.274503    0.104697    16.287775    -1.054280    14.480056    -10.251321    10.266545    11.963910    12.200320    -0.403212    -18.737167    -9.226005    -18.300068    -38.704586    8.005506    -39.027660    -22.455063    -24.959051    -28.751738    -46.082165    -8.601309    3.276388    -1.178636    35.056416    6.870822    78.412857    7.321209    -2.413834    106.774773    3.721297    -11.549720    20.583338    25.828588    -18.446781    2.846183    -12.061081    20.076302    -5.034022    -11.739738    -11.377267    37.794064    0.000000    0.000000    0.000000    -11.401741    -12.162883    -1.850015    8.653823    38.744137    -2.214267    1.549942    -22.675253    -10.173410    0.000000    0.000000    0.000000    
20.372795    154.477554    -43.298492    -0.763061    1.029245    -55.392166    3.343540    -0.090523    0.389986    0.375007    2.281953    0.120927    16.357298    -1.021303    14.550517    -10.315709    10.236994    12.025210    12.220019    -0.417737    -18.753677    -9.196589    -18.416914    -38.632530    8.039537    -39.011162    -22.228466    -24.902151    -28.777861    -46.022835    -8.601695    3.250648    -1.148831    35.033363    6.889461    78.452354    7.312849    -2.491035    106.820908    3.730089    -11.622869    20.525393    25.708965    -18.405331    2.190875    -11.943280    20.058928    -5.467432    -11.871586    -11.522307    37.579292    0.000000    0.000000    0.000000    -11.427607    -12.202292    -1.690306    8.638288    38.585926    -2.192338    1.591491    -22.538275    -10.066168    0.000000    0.000000    0.000000    
20.413342    154.534103    -43.192165    -0.758094    1.030492    -55.668198    3.334222    -0.089301    0.420491    0.411286    2.287913    0.130149    16.380568    -0.982117    14.618436    -10.359797    10.203718    12.092920    12.212339    -0.414618    -18.723133    -9.165356    -18.482813    -38.590611    8.121741    -39.021114    -21.988493    -24.918814    -28.775873    -46.057236    -8.619593    3.244273    -1.114064    35.008942    6.902623    78.518105    7.312441    -2.561650    106.858688    3.722742    -11.700631    20.495367    25.599285    -18.365284    1.560762    -11.845427    20.106663    -5.753784    -11.982175    -11.611188    37.242924    0.000000    0.000000    0.000000    -11.439771    -12.213634    -1.567142    8.579368    38.444736    -2.061109    1.639809    -22.420284    -10.016395    0.000000    0.000000    0.000000    
20.458502    154.596085    -43.092545    -0.744345    1.046651    -55.952038    3.344161    -0.098771    0.463302    0.423070    2.290947    0.144301    16.449015    -0.928436    14.680759    -10.468235    10.158117    12.145185    12.207633    -0.447831    -18.696108    -9.132827    -18.528679    -38.550217    8.156238    -39.060402    -21.774349    -24.859995    -28.849129    -46.066708    -8.627661    3.265797    -1.094845    34.993973    6.895101    78.602577    7.310921    -2.616343    106.879013    3.744398    -11.751997    20.492352    25.522032    -18.333836    0.960282    -11.788765    20.137814    -6.169637    -12.036159    -11.649483    37.105671    0.000000    0.000000    0.000000    -11.442818    -12.236833    -1.460757    8.508815    38.281258    -1.958752    1.680163    -22.280371    -9.915274    0.000000    0.000000    0.000000    
20.508978    154.661743    -42.974266    -0.730008    1.062361    -56.253620    3.379678    -0.098642    0.513482    0.398841    2.286225    0.161554    16.504072    -0.895538    14.751043    -10.536160    10.127126    12.208323    12.202943    -0.523358    -18.688370    -9.055526    -18.428425    -38.442421    8.335164    -39.097019    -21.518423    -24.908203    -28.856489    -46.073505    -8.620390    3.215810    -1.048656    35.001541    6.908956    78.611153    7.335119    -2.614804    106.917908    3.756757    -11.788304    20.469242    25.434862    -18.298805    0.365056    -11.713030    20.185869    -6.590155    -12.087810    -11.719088    37.079529    0.000000    0.000000    0.000000    -11.457387    -12.259006    -1.359649    8.442295    38.105183    -1.900804    1.758869    -22.123861    -9.758145    0.000000    0.000000    0.000000    
20.550991    154.720261    -42.860870    -0.730276    1.082949    -56.522495    3.409868    -0.081302    0.537679    0.386389    2.265990    0.170197    16.581280    -0.860160    14.815880    -10.616249    10.098351    12.262121    12.225194    -0.555011    -18.642790    -9.033638    -18.464216    -38.399399    8.311425    -39.138523    -21.372797    -24.769669    -28.985510    -46.011902    -8.611990    3.197026    -1.020842    34.981583    6.945926    78.655151    7.311517    -2.688003    106.949677    3.775492    -11.831750    20.441780    25.372654    -18.306589    -0.212714    -11.676035    20.339779    -7.262616    -12.086951    -11.900487    37.415264    0.000000    0.000000    0.000000    -11.466634    -12.266873    -1.306219    8.442151    37.845963    -1.861565    1.683671    -21.886639    -9.689462    0.000000    0.000000    0.000000    
20.593061    154.778366    -42.749538    -0.723114    1.115115    -56.796318    3.447633    -0.074823    0.570628    0.372958    2.237494    0.181364    16.648085    -0.829548    14.882055    -10.682118    10.091323    12.321121    12.244031    -0.519586    -18.582876    -8.975822    -18.484659    -38.390327    8.421139    -39.174229    -21.137896    -24.745853    -29.020452    -46.065018    -8.612749    3.194787    -1.018743    34.963165    6.989215    78.733536    7.185597    -2.747508    106.887756    3.715676    -11.718266    20.529186    25.333523    -18.317360    -0.860144    -11.569633    20.454914    -7.893498    -12.154200    -11.884030    37.357105    0.000000    0.000000    0.000000    -11.456043    -12.290447    -1.282675    8.311990    37.695190    -1.749830    1.783407    -21.735970    -9.515320    0.000000    0.000000    0.000000    
20.638626    154.831436    -42.625744    -0.716930    1.139428    -57.089481    3.483296    -0.065916    0.622505    0.368433    2.217434    0.198954    16.714262    -0.790743    14.940845    -10.774483    10.062822    12.370313    12.203968    -0.538746    -18.598175    -8.788465    -18.326883    -38.263153    8.730692    -39.050682    -20.812061    -24.635578    -28.917955    -45.969501    -8.630151    3.151539    -1.005498    34.978138    7.022466    78.746246    7.184996    -2.738571    106.911919    3.682853    -11.719874    20.499939    25.261536    -18.299700    -1.406081    -11.471903    20.551777    -8.326669    -12.266104    -11.949620    37.395016    0.000000    0.000000    0.000000    -11.457862    -12.319814    -1.202580    8.225257    37.552147    -1.698117    1.879127    -21.581913    -9.306634    0.000000    0.000000    0.000000    
